#!OML:ASF I:\Actors\actors\Patient Classification 1\Patient 1\Session 1\Subject1.ASF
:FULLY-SPECIFIED
:DEGREES
207
root -0.475981 17.5328 7.65953 5.30001 -4.98655 -8.11969
lowerback 2.07468 -0.658635 3.8954
upperback -7.89439 -0.478358 1.85988
thorax -9.53408 -0.45047 -0.151964
lowerneck -12.2218 -2.63141 0.650789
upperneck 34.9597 -4.42368 0.423169
head 13.9209 -1.83672 -0.630969
rclavicle 1.13307e-014 -7.95139e-016
rhumerus 7.60399 20.2602 -51.5091
rradius 109.972
rwrist 44.5038
rhand -27.3527 -50.5137
rfingers 7.12502
rthumb -0.760701 -440.492
lclavicle 1.13307e-014 -7.95139e-016
lhumerus -44.6668 -29.8209 109.706
lradius 97.3659
lwrist 35.7953
lhand -33.2559 -8.2221
lfingers 7.12502
lthumb -6.46121 21.6593
rfemur -0.0479058 23.4879 27.1328
rtibia 3.70359
rfoot -11.0235 -18.6481
rtoes -1.6604
lfemur 11.8166 -38.9263 -18.7358
ltibia -4.46621
lfoot -22.1133 51.6454
ltoes 14.5571
208
root -0.471557 17.5342 7.66331 5.26631 -4.9885 -8.04713
lowerback 2.02229 -0.618014 3.93715
upperback -7.90237 -0.428985 1.78728
thorax -9.51124 -0.432584 -0.258084
lowerneck -12.0744 -2.62629 0.665211
upperneck 34.9402 -4.42891 0.460168
head 13.8801 -1.83363 -0.616078
rclavicle -5.06901e-015 -1.51076e-014
rhumerus 7.75598 22.8496 -49.0653
rradius 109.524
rwrist 49.218
rhand -28.6752 -48.6009
rfingers 7.12502
rthumb -2.03806 -438.571
lclavicle -5.06901e-015 -1.51076e-014
lhumerus -44.6862 -30.0464 109.662
lradius 97.4306
lwrist 35.7111
lhand -33.0054 -8.2903
lfingers 7.12502
lthumb -6.21939 21.5984
rfemur 0.00932664 23.5005 27.0468
rtibia 3.67317
rfoot -11.0234 -18.6795
rtoes -1.69473
lfemur 11.849 -38.9007 -18.8639
ltibia -4.44254
lfoot -22.1155 51.6089
ltoes 14.6722
209
root -0.46801 17.5348 7.6668 5.22492 -5.00773 -8.05914
lowerback 1.99858 -0.560142 4.07596
upperback -7.8763 -0.347924 1.73001
thorax -9.46801 -0.405132 -0.405425
lowerneck -12.0393 -2.63634 0.682932
upperneck 34.9303 -4.45797 0.493126
head 13.8685 -1.83948 -0.609391
rclavicle -1.76918e-014 4.77083e-015
rhumerus 7.46315 25.7416 -46.7353
rradius 109.279
rwrist 51.4107
rhand -30.0331 -47.6656
rfingers 7.12502
rthumb -3.34938 -437.619
lclavicle -1.76918e-014 4.77083e-015
lhumerus -44.6211 -30.2975 109.585
lradius 97.4884
lwrist 35.629
lhand -32.8734 -8.25416
lfingers 7.12502
lthumb -6.09196 21.6383
rfemur 0.0803389 23.5109 27.0702
rtibia 3.65142
rfoot -11.0264 -18.6873
rtoes -1.74479
lfemur 11.857 -38.708 -18.8322
ltibia -4.42726
lfoot -22.0544 51.4105
ltoes 14.596
210
root -0.465148 17.5348 7.66908 5.18253 -5.02795 -8.08635
lowerback 1.99473 -0.506515 4.22626
upperback -7.80164 -0.271995 1.67819
thorax -9.38251 -0.379482 -0.553386
lowerneck -12.1618 -2.61153 0.711682
upperneck 34.9305 -4.439 0.523865
head 13.8964 -1.82099 -0.601554
rclavicle -2.68359e-015 1.55052e-014
rhumerus 8.31414 28.9408 -44.0933
rradius 109.087
rwrist 51.9567
rhand -31.1017 -47.5679
rfingers 7.12502
rthumb -4.38132 -437.503
lclavicle -2.68359e-015 1.55052e-014
lhumerus -44.3827 -30.5359 109.427
lradius 97.5073
lwrist 35.5873
lhand -33.1331 -8.38741
lfingers 7.12502
lthumb -6.34269 21.4976
rfemur 0.13498 23.5 27.1098
rtibia 3.64908
rfoot -11.0183 -18.6757
rtoes -1.678
lfemur 11.8407 -38.429 -18.7363
ltibia -4.44391
lfoot -21.774 51.1828
ltoes 14.2876
211
root -0.461879 17.5342 7.66987 5.14877 -5.06488 -8.08995
lowerback 1.99261 -0.458558 4.34478
upperback -7.74055 -0.205256 1.62917
thorax -9.31262 -0.356002 -0.679314
lowerneck -12.186 -2.61656 0.780335
upperneck 34.8089 -4.43722 0.463527
head 13.8431 -1.82041 -0.636094
rclavicle 1.20265e-014 3.97569e-015
rhumerus 9.15447 32.0156 -41.6323
rradius 108.846
rwrist 52.1247
rhand -32.6152 -47.5644
rfingers 7.12502
rthumb -5.84267 -437.464
lclavicle 1.20265e-014 3.97569e-015
lhumerus -44.1264 -30.6601 109.248
lradius 97.5218
lwrist 35.6031
lhand -33.4621 -8.63203
lfingers 7.12502
lthumb -6.66031 21.2432
rfemur 0.14563 23.4747 27.1109
rtibia 3.69747
rfoot -11.0215 -18.6248
rtoes -1.52078
lfemur 11.8278 -38.2352 -18.7071
ltibia -4.42915
lfoot -21.5862 51.0499
ltoes 14.0869
212
root -0.459135 17.5335 7.67005 5.1157 -5.12599 -8.12285
lowerback 1.98885 -0.442519 4.45013
upperback -7.69338 -0.17835 1.63031
thorax -9.25856 -0.349152 -0.740312
lowerneck -12.1996 -2.56523 0.860055
upperneck 34.7862 -4.35454 0.389715
head 13.8314 -1.78379 -0.666865
rclavicle 1.27222e-014 -3.10104e-014
rhumerus 10.1268 34.8309 -39.3618
rradius 108.416
rwrist 52.6531
rhand -34.1689 -47.5388
rfingers 7.12502
rthumb -7.34261 -437.391
lclavicle 1.27222e-014 -3.10104e-014
lhumerus -43.9021 -30.5689 109.054
lradius 97.6281
lwrist 35.6258
lhand -33.566 -8.24335
lfingers 7.12502
lthumb -6.76065 21.6287
rfemur 0.15062 23.4445 27.1502
rtibia 3.76336
rfoot -11.0428 -18.5394
rtoes -1.58759
lfemur 11.9024 -38.2199 -18.737
ltibia -4.41321
lfoot -21.7011 51.0538
ltoes 14.2482
213
root -0.458338 17.5328 7.66993 5.08153 -5.18803 -8.16094
lowerback 1.99165 -0.431296 4.52657
upperback -7.64192 -0.159116 1.63942
thorax -9.20348 -0.343417 -0.775971
lowerneck -12.2643 -2.49815 0.914451
upperneck 34.8127 -4.25578 0.348473
head 13.8551 -1.73775 -0.67949
rclavicle -2.28602e-015 5.56597e-015
rhumerus 11.2104 37.3723 -37.2325
rradius 107.983
rwrist 53.5374
rhand -34.9218 -47.6139
rfingers 7.12502
rthumb -8.06926 -437.44
lclavicle -2.28602e-015 5.56597e-015
lhumerus -43.76 -30.4406 108.902
lradius 97.8102
lwrist 35.5945
lhand -33.415 -7.68886
lfingers 7.12502
lthumb -6.61483 22.1878
rfemur 0.163448 23.4311 27.2017
rtibia 3.81362
rfoot -11.0526 -18.4555
rtoes -1.54346
lfemur 11.989 -38.1757 -18.7416
ltibia -4.44225
lfoot -21.7537 51.0628
ltoes 14.4246
214
root -0.45767 17.5323 7.66884 5.06137 -5.23837 -8.13598
lowerback 1.99198 -0.396336 4.55209
upperback -7.59256 -0.114406 1.60914
thorax -9.14715 -0.323108 -0.827575
lowerneck -12.3223 -2.46857 0.98437
upperneck 34.781 -4.20864 0.291135
head 13.8503 -1.71517 -0.708049
rclavicle 1.40143e-014 -3.81667e-014
rhumerus 12.2988 39.7361 -35.3265
rradius 107.64
rwrist 54.0949
rhand -35.0398 -47.7208
rfingers 7.12502
rthumb -8.18314 -437.542
lclavicle 1.40143e-014 -3.81667e-014
lhumerus -43.7224 -30.4005 108.861
lradius 97.9683
lwrist 35.5661
lhand -33.1215 -7.89685
lfingers 7.12502
lthumb -6.33146 21.9885
rfemur 0.145829 23.4146 27.1667
rtibia 3.86178
rfoot -11.0261 -18.3957
rtoes -1.53215
lfemur 11.9962 -38.0855 -18.7686
ltibia -4.44672
lfoot -21.6487 51.0598
ltoes 14.2843
215
root -0.456636 17.5318 7.66739 5.04843 -5.29461 -8.07957
lowerback 1.99454 -0.365976 4.53141
upperback -7.55135 -0.0784244 1.58099
thorax -9.10084 -0.303872 -0.850109
lowerneck -12.3975 -2.4361 1.05609
upperneck 34.8315 -4.16669 0.246998
head 13.8867 -1.69149 -0.73396
rclavicle 2.60408e-014 -1.43125e-014
rhumerus 13.417 41.9742 -33.7207
rradius 107.325
rwrist 53.9354
rhand -34.9236 -47.7505
rfingers 7.12502
rthumb -8.07105 -437.576
lclavicle 2.60408e-014 -1.43125e-014
lhumerus -43.5892 -30.3477 108.835
lradius 98.0286
lwrist 35.5829
lhand -33.0721 -8.28898
lfingers 7.12502
lthumb -6.28379 21.5978
rfemur 0.123858 23.391 27.0924
rtibia 3.89661
rfoot -10.9951 -18.3602
rtoes -1.87142
lfemur 12.0135 -38.1264 -18.8796
ltibia -4.414
lfoot -21.6632 51.1722
ltoes 13.997
216
root -0.456745 17.5313 7.66662 5.05211 -5.33656 -8.05252
lowerback 1.98573 -0.363712 4.48909
upperback -7.5583 -0.078376 1.58397
thorax -9.10261 -0.300809 -0.823344
lowerneck -12.3403 -2.35965 1.1356
upperneck 34.9031 -4.05435 0.187577
head 13.9028 -1.63946 -0.754443
rclavicle 1.51076e-014 -2.78299e-015
rhumerus 14.5141 44.0835 -32.4081
rradius 106.975
rwrist 53.3878
rhand -34.7397 -47.6033
rfingers 7.12502
rthumb -7.8935 -437.436
lclavicle 1.51076e-014 -2.78299e-015
lhumerus -43.4459 -30.2327 108.806
lradius 98.0417
lwrist 35.6076
lhand -33.2385 -8.27253
lfingers 7.12502
lthumb -6.44451 21.6094
rfemur 0.113932 23.3868 27.054
rtibia 3.89248
rfoot -10.9984 -18.3347
rtoes -2.01018
lfemur 12.0468 -38.2321 -18.9695
ltibia -4.39246
lfoot -21.7189 51.3093
ltoes 13.8968
217
root -0.457879 17.5312 7.66566 5.06454 -5.35609 -8.05542
lowerback 1.9566 -0.379011 4.45606
upperback -7.59575 -0.100477 1.6008
thorax -9.12734 -0.30946 -0.784556
lowerneck -12.0796 -2.26192 1.22312
upperneck 34.8541 -3.89611 0.108074
head 13.8189 -1.57299 -0.771954
rclavicle 1.59028e-015 2.10712e-014
rhumerus 15.5249 46.0899 -31.4241
rradius 106.512
rwrist 52.8889
rhand -34.7148 -47.3374
rfingers 7.12502
rthumb -7.86955 -437.171
lclavicle 1.59028e-015 2.10712e-014
lhumerus -43.4974 -30.1517 108.844
lradius 98.1373
lwrist 35.6284
lhand -33.3647 -8.01698
lfingers 7.12502
lthumb -6.56626 21.8612
rfemur 0.0938835 23.3912 27.0498
rtibia 3.8823
rfoot -10.9883 -18.306
rtoes -1.96209
lfemur 12.0424 -38.2636 -18.9708
ltibia -4.36665
lfoot -21.8758 51.2891
ltoes 14.3217
218
root -0.459381 17.5319 7.66427 5.0615 -5.3702 -8.07289
lowerback 1.92482 -0.393731 4.46238
upperback -7.56556 -0.122375 1.60933
thorax -9.07619 -0.319089 -0.777587
lowerneck -11.9643 -2.18981 1.29124
upperneck 34.7831 -3.78108 0.0515695
head 13.7589 -1.5235 -0.786007
rclavicle -8.74653e-015 -1.15295e-014
rhumerus 16.0989 47.8832 -31.0462
rradius 106.111
rwrist 52.6516
rhand -34.9226 -46.8997
rfingers 7.12502
rthumb -8.07002 -436.726
lclavicle -8.74653e-015 -1.15295e-014
lhumerus -43.4822 -30.219 108.846
lradius 98.2669
lwrist 35.7069
lhand -33.4331 -7.93929
lfingers 7.12502
lthumb -6.63236 21.9368
rfemur 0.0879105 23.3778 27.0693
rtibia 3.87752
rfoot -10.974 -18.2556
rtoes -2.0277
lfemur 12.0346 -38.2305 -18.9305
ltibia -4.36291
lfoot -22.005 51.2334
ltoes 14.6791
